<svg width="232" height="54" viewBox="0 0 232 54" fill="none" xmlns="http://www.w3.org/2000/svg">
<path d="M1.59766 52.459L30.0541 37.2521C35.5329 34.3243 42.0911 34.2344 47.6482 37.0108L67.3178 46.8385C74.1476 50.2508 82.3513 49.2828 88.1993 44.3746L106.588 28.9405C113.006 23.5539 122.179 22.9621 129.236 27.4795L146.915 38.7966C152.654 42.4707 159.913 42.8199 165.979 39.7136L187.893 28.4905C191.458 26.6651 195.504 26.0024 199.465 26.5954L230.242 31.2042" stroke="#7676B2" stroke-opacity="0.2" stroke-width="1.91602" stroke-linecap="round"/>
<path d="M1.59766 47.0509L29.1084 29.4392C35.9957 25.0301 44.9222 25.4783 51.3333 30.5549L63.9976 40.5833C72.2843 47.1451 84.3195 45.7567 90.8944 37.4805L104.292 20.6157C111.193 11.9295 124.005 10.901 132.203 18.375L146.205 31.1402C151.973 36.3987 160.354 37.6329 167.393 34.2603L187.643 24.5576C191.029 22.9354 194.816 22.3436 198.535 22.8556L230.242 27.2211" stroke="#232340" stroke-width="1.91602" stroke-linecap="round"/>
</svg>
