<svg width="25" height="25" viewBox="0 0 25 25" fill="none" xmlns="http://www.w3.org/2000/svg">
<path d="M9.14736 22.9649H15.1813C20.2096 22.9649 22.2209 20.9536 22.2209 15.9253V9.89137C22.2209 4.86309 20.2096 2.85178 15.1813 2.85178H9.14736C4.11908 2.85178 2.10777 4.86309 2.10777 9.89137V15.9253C2.10777 20.9536 4.11908 22.9649 9.14736 22.9649Z" stroke="#8B8C91" stroke-width="1.50848" stroke-linecap="round" stroke-linejoin="round"/>
<path d="M15.6841 19.445C16.7903 19.445 17.6954 18.5399 17.6954 17.4337V8.3828C17.6954 7.27658 16.7903 6.37149 15.6841 6.37149C14.5779 6.37149 13.6728 7.27658 13.6728 8.3828V17.4337C13.6728 18.5399 14.5678 19.445 15.6841 19.445Z" stroke="#8B8C91" stroke-width="1.50848" stroke-linecap="round" stroke-linejoin="round"/>
<path d="M8.6445 19.4451C9.75072 19.4451 10.6558 18.54 10.6558 17.4338V13.914C10.6558 12.8077 9.75072 11.9026 8.6445 11.9026C7.53828 11.9026 6.63319 12.8077 6.63319 13.914V17.4338C6.63319 18.54 7.52822 19.4451 8.6445 19.4451Z" stroke="#8B8C91" stroke-width="1.50848" stroke-linecap="round" stroke-linejoin="round"/>
</svg>
