<svg width="23" height="23" viewBox="0 0 23 23" fill="none" xmlns="http://www.w3.org/2000/svg">
<path d="M8.40683 20.9937H13.9471C18.564 20.9937 20.4107 19.1469 20.4107 14.5301V8.98981C20.4107 4.37293 18.564 2.52618 13.9471 2.52618H8.40683C3.78996 2.52618 1.94321 4.37293 1.94321 8.98981V14.5301C1.94321 19.1469 3.78996 20.9937 8.40683 20.9937Z" stroke="#8B8C91" stroke-width="1.38506" stroke-linecap="round" stroke-linejoin="round"/>
<path d="M14.4088 17.7618C15.4245 17.7618 16.2555 16.9308 16.2555 15.9151V7.60468C16.2555 6.58897 15.4245 5.75793 14.4088 5.75793C13.3931 5.75793 12.562 6.58897 12.562 7.60468V15.9151C12.562 16.9308 13.3838 17.7618 14.4088 17.7618Z" stroke="#8B8C91" stroke-width="1.38506" stroke-linecap="round" stroke-linejoin="round"/>
<path d="M7.94511 17.7619C8.96082 17.7619 9.79186 16.9308 9.79186 15.9151V12.6833C9.79186 11.6676 8.96082 10.8365 7.94511 10.8365C6.9294 10.8365 6.09836 11.6676 6.09836 12.6833V15.9151C6.09836 16.9308 6.92016 17.7619 7.94511 17.7619Z" stroke="#8B8C91" stroke-width="1.38506" stroke-linecap="round" stroke-linejoin="round"/>
</svg>
