<svg width="25" height="25" viewBox="0 0 25 25" fill="none" xmlns="http://www.w3.org/2000/svg">
<path d="M9.14738 22.9648H15.1813C20.2096 22.9648 22.2209 20.9535 22.2209 15.9252V9.89128C22.2209 4.863 20.2096 2.85168 15.1813 2.85168H9.14738C4.1191 2.85168 2.10779 4.863 2.10779 9.89128V15.9252C2.10779 20.9535 4.1191 22.9648 9.14738 22.9648Z" stroke="#8B8C91" stroke-width="1.50848" stroke-linecap="round" stroke-linejoin="round"/>
<path d="M15.6841 19.4449C16.7903 19.4449 17.6954 18.5398 17.6954 17.4336V8.38271C17.6954 7.27649 16.7903 6.3714 15.6841 6.3714C14.5779 6.3714 13.6728 7.27649 13.6728 8.38271V17.4336C13.6728 18.5398 14.5678 19.4449 15.6841 19.4449Z" stroke="#8B8C91" stroke-width="1.50848" stroke-linecap="round" stroke-linejoin="round"/>
<path d="M8.64455 19.445C9.75077 19.445 10.6559 18.5399 10.6559 17.4337V13.9139C10.6559 12.8077 9.75077 11.9026 8.64455 11.9026C7.53833 11.9026 6.63324 12.8077 6.63324 13.9139V17.4337C6.63324 18.5399 7.52827 19.445 8.64455 19.445Z" stroke="#8B8C91" stroke-width="1.50848" stroke-linecap="round" stroke-linejoin="round"/>
</svg>
