<svg width="23" height="23" viewBox="0 0 23 23" fill="none" xmlns="http://www.w3.org/2000/svg">
<path d="M8.40686 20.9936H13.9471C18.564 20.9936 20.4107 19.1469 20.4107 14.53V8.98975C20.4107 4.37287 18.564 2.52612 13.9471 2.52612H8.40686C3.78999 2.52612 1.94324 4.37287 1.94324 8.98975V14.53C1.94324 19.1469 3.78999 20.9936 8.40686 20.9936Z" stroke="#8B8C91" stroke-width="1.38506" stroke-linecap="round" stroke-linejoin="round"/>
<path d="M14.4088 17.7617C15.4245 17.7617 16.2555 16.9307 16.2555 15.915V7.60462C16.2555 6.58891 15.4245 5.75787 14.4088 5.75787C13.393 5.75787 12.562 6.58891 12.562 7.60462V15.915C12.562 16.9307 13.3838 17.7617 14.4088 17.7617Z" stroke="#8B8C91" stroke-width="1.38506" stroke-linecap="round" stroke-linejoin="round"/>
<path d="M7.94514 17.7618C8.96085 17.7618 9.79189 16.9308 9.79189 15.915V12.6832C9.79189 11.6675 8.96085 10.8365 7.94514 10.8365C6.92943 10.8365 6.09839 11.6675 6.09839 12.6832V15.915C6.09839 16.9308 6.92019 17.7618 7.94514 17.7618Z" stroke="#8B8C91" stroke-width="1.38506" stroke-linecap="round" stroke-linejoin="round"/>
</svg>
