<svg width="23" height="23" viewBox="0 0 23 23" fill="none" xmlns="http://www.w3.org/2000/svg">
<path d="M8.51654 13.7045C8.51654 14.8529 9.39787 15.7788 10.4929 15.7788H12.7273C13.6799 15.7788 14.4544 14.9687 14.4544 13.9716C14.4544 12.8855 13.9826 12.5027 13.2793 12.2535L9.69165 11.0071C8.98836 10.7579 8.51654 10.3751 8.51654 9.28898C8.51654 8.29192 9.29104 7.48181 10.2436 7.48181H12.4781C13.5731 7.48181 14.4544 8.40765 14.4544 9.55605" stroke="url(#paint0_linear_1_422)" stroke-width="1.85404" stroke-linecap="round" stroke-linejoin="round"/>
<path d="M11.4794 6.28912V16.9719" stroke="url(#paint1_linear_1_422)" stroke-width="1.85404" stroke-linecap="round" stroke-linejoin="round"/>
<path d="M11.4794 20.5327C16.396 20.5327 20.3817 16.547 20.3817 11.6304C20.3817 6.7138 16.396 2.72809 11.4794 2.72809C6.56273 2.72809 2.57703 6.7138 2.57703 11.6304C2.57703 16.547 6.56273 20.5327 11.4794 20.5327Z" stroke="url(#paint2_linear_1_422)" stroke-width="1.85404" stroke-linecap="round" stroke-linejoin="round"/>
<defs>
<linearGradient id="paint0_linear_1_422" x1="11.4855" y1="7.48181" x2="11.4855" y2="15.7788" gradientUnits="userSpaceOnUse">
<stop stop-color="#172C37"/>
<stop offset="1" stop-color="#2F5062"/>
</linearGradient>
<linearGradient id="paint1_linear_1_422" x1="11.9794" y1="6.28912" x2="11.9794" y2="16.9719" gradientUnits="userSpaceOnUse">
<stop stop-color="#172C37"/>
<stop offset="1" stop-color="#2F5062"/>
</linearGradient>
<linearGradient id="paint2_linear_1_422" x1="11.4794" y1="2.72809" x2="11.4794" y2="20.5327" gradientUnits="userSpaceOnUse">
<stop stop-color="#172C37"/>
<stop offset="1" stop-color="#2F5062"/>
</linearGradient>
</defs>
</svg>
