<svg width="23" height="23" viewBox="0 0 23 23" fill="none" xmlns="http://www.w3.org/2000/svg">
<path d="M8.51658 13.7047C8.51658 14.8531 9.39791 15.7789 10.4929 15.7789H12.7274C13.6799 15.7789 14.4544 14.9688 14.4544 13.9717C14.4544 12.8856 13.9826 12.5028 13.2793 12.2536L9.69169 11.0073C8.9884 10.758 8.51658 10.3752 8.51658 9.28911C8.51658 8.29205 9.29108 7.48193 10.2436 7.48193H12.4781C13.5731 7.48193 14.4544 8.40778 14.4544 9.55618" stroke="url(#paint0_linear_12_159)" stroke-width="1.85404" stroke-linecap="round" stroke-linejoin="round"/>
<path d="M11.4794 6.28918V16.972" stroke="url(#paint1_linear_12_159)" stroke-width="1.85404" stroke-linecap="round" stroke-linejoin="round"/>
<path d="M11.4794 20.5328C16.396 20.5328 20.3817 16.5471 20.3817 11.6305C20.3817 6.71386 16.396 2.72815 11.4794 2.72815C6.56276 2.72815 2.57706 6.71386 2.57706 11.6305C2.57706 16.5471 6.56276 20.5328 11.4794 20.5328Z" stroke="url(#paint2_linear_12_159)" stroke-width="1.85404" stroke-linecap="round" stroke-linejoin="round"/>
<defs>
<linearGradient id="paint0_linear_12_159" x1="11.4855" y1="7.48193" x2="11.4855" y2="15.7789" gradientUnits="userSpaceOnUse">
<stop stop-color="#172C37"/>
<stop offset="1" stop-color="#2F5062"/>
</linearGradient>
<linearGradient id="paint1_linear_12_159" x1="11.9794" y1="6.28918" x2="11.9794" y2="16.972" gradientUnits="userSpaceOnUse">
<stop stop-color="#172C37"/>
<stop offset="1" stop-color="#2F5062"/>
</linearGradient>
<linearGradient id="paint2_linear_12_159" x1="11.4794" y1="2.72815" x2="11.4794" y2="20.5328" gradientUnits="userSpaceOnUse">
<stop stop-color="#172C37"/>
<stop offset="1" stop-color="#2F5062"/>
</linearGradient>
</defs>
</svg>
