<svg width="25" height="24" viewBox="0 0 25 24" fill="none" xmlns="http://www.w3.org/2000/svg">
<path fill-rule="evenodd" clip-rule="evenodd" d="M4.5 8C3.95 8 3.5 7.55 3.5 7C3.5 6.45 3.95 6 4.5 6H20.5C21.05 6 21.5 6.45 21.5 7C21.5 7.55 21.05 8 20.5 8H4.5ZM4.5 13H20.5C21.05 13 21.5 12.55 21.5 12C21.5 11.45 21.05 11 20.5 11H4.5C3.95 11 3.5 11.45 3.5 12C3.5 12.55 3.95 13 4.5 13ZM4.5 18H20.5C21.05 18 21.5 17.55 21.5 17C21.5 16.45 21.05 16 20.5 16H4.5C3.95 16 3.5 16.45 3.5 17C3.5 17.55 3.95 18 4.5 18Z" fill="#F5F5F5"/>
</svg>
