<svg width="34" height="34" viewBox="0 0 34 34" fill="none" xmlns="http://www.w3.org/2000/svg">
<path fill-rule="evenodd" clip-rule="evenodd" d="M11.2163 18.4031V18.2632C11.2369 17.8495 11.3695 17.4485 11.6005 17.1018C11.9851 16.6853 12.2484 16.1749 12.3627 15.6241C12.3627 15.1985 12.3627 14.7667 12.3999 14.3411C12.592 12.2918 14.6182 10.875 16.6197 10.875H16.6692C18.6707 10.875 20.6969 12.2918 20.8952 14.3411C20.9324 14.7667 20.8952 15.1985 20.9262 15.6241C21.0421 16.1762 21.3051 16.6882 21.6884 17.1079C21.9211 17.4515 22.054 17.851 22.0725 18.2632V18.397C22.0864 18.953 21.8949 19.495 21.5335 19.9233C21.0558 20.4241 20.4077 20.7356 19.7117 20.799C17.6709 21.0179 15.6118 21.0179 13.571 20.799C12.8758 20.7329 12.2286 20.4218 11.7492 19.9233C11.3934 19.4947 11.2045 18.9558 11.2163 18.4031Z" stroke="#7676B2" stroke-width="0.958008" stroke-linecap="round" stroke-linejoin="round"/>
<path d="M15.0829 22.9152C15.4018 23.3154 15.8701 23.5744 16.3841 23.6349C16.8981 23.6954 17.4155 23.5524 17.8218 23.2374C17.9467 23.1443 18.0592 23.036 18.1564 22.9152" stroke="#7676B2" stroke-width="0.958008" stroke-linecap="round" stroke-linejoin="round"/>
<circle cx="20.4766" cy="12.791" r="2.55469" fill="#CD3716"/>
<rect x="0.358398" y="0.975586" width="32.5723" height="32.5723" rx="16.2861" stroke="#F5F5F7" stroke-width="0.638672"/>
</svg>
