<svg width="27" height="27" viewBox="0 0 27 27" fill="none" xmlns="http://www.w3.org/2000/svg">
<path d="M3.36375 10.5694V16.8535C3.36375 19.1625 3.36375 19.1624 5.54197 20.6327L11.5321 24.0961C12.436 24.6189 13.9063 24.6189 14.7994 24.0961L20.7895 20.6327C22.9677 19.1624 22.9677 19.1625 22.9677 16.8644V10.5694C22.9677 8.27136 22.9677 8.27136 20.7895 6.80106L14.7994 3.3377C13.9063 2.81492 12.436 2.81492 11.5321 3.3377L5.54197 6.80106C3.36375 8.27136 3.36375 8.27136 3.36375 10.5694Z" stroke="#8B8C91" stroke-width="1.63366" stroke-linecap="round" stroke-linejoin="round"/>
<path d="M13.1657 16.9842C14.9702 16.9842 16.4331 15.5214 16.4331 13.7169C16.4331 11.9124 14.9702 10.4496 13.1657 10.4496C11.3612 10.4496 9.89841 11.9124 9.89841 13.7169C9.89841 15.5214 11.3612 16.9842 13.1657 16.9842Z" stroke="#8B8C91" stroke-width="1.63366" stroke-linecap="round" stroke-linejoin="round"/>
</svg>
