<svg width="27" height="27" viewBox="0 0 27 27" fill="none" xmlns="http://www.w3.org/2000/svg">
<path d="M3.36377 10.5694V16.8536C3.36377 19.1625 3.36377 19.1625 5.54199 20.6328L11.5321 24.0962C12.436 24.6189 13.9063 24.6189 14.7994 24.0962L20.7895 20.6328C22.9677 19.1625 22.9677 19.1625 22.9677 16.8645V10.5694C22.9677 8.27142 22.9677 8.27142 20.7895 6.80112L14.7994 3.33776C13.9063 2.81499 12.436 2.81499 11.5321 3.33776L5.54199 6.80112C3.36377 8.27142 3.36377 8.27142 3.36377 10.5694Z" stroke="#8B8C91" stroke-width="1.63366" stroke-linecap="round" stroke-linejoin="round"/>
<path d="M13.1658 16.9844C14.9703 16.9844 16.4331 15.5215 16.4331 13.717C16.4331 11.9125 14.9703 10.4497 13.1658 10.4497C11.3613 10.4497 9.89844 11.9125 9.89844 13.717C9.89844 15.5215 11.3613 16.9844 13.1658 16.9844Z" stroke="#8B8C91" stroke-width="1.63366" stroke-linecap="round" stroke-linejoin="round"/>
</svg>
