<svg width="34" height="32" viewBox="0 0 34 32" fill="none" xmlns="http://www.w3.org/2000/svg">
<path d="M16.9447 22.9296C17.1023 22.836 17.2984 22.8362 17.4559 22.93L23.0722 26.2767L23.0723 26.2767C23.7373 26.6733 24.5111 26.0801 24.3461 25.3811L22.8575 19.088C22.8143 18.9055 22.8768 18.7143 23.0194 18.5926L27.9862 14.3526L27.9863 14.3524C28.5462 13.8749 28.2571 12.9573 27.5003 12.898L27.4977 12.8978L20.9611 12.3511C20.777 12.3357 20.6165 12.2201 20.5435 12.0504L17.9857 6.10375L17.985 6.10217C17.6976 5.42753 16.7023 5.42753 16.4148 6.10217L16.414 6.10413L13.8562 12.0375C13.7831 12.2069 13.6227 12.3224 13.4387 12.3378L6.90213 12.8845L6.89952 12.8847L6.89952 12.8847C6.14272 12.944 5.85367 13.8616 6.41352 14.3391L6.41369 14.3392L11.3804 18.5792C11.523 18.701 11.5855 18.8922 11.5424 19.0746L10.0537 25.3677L16.9447 22.9296ZM16.9447 22.9296L11.3284 26.2629L11.3275 26.2634M16.9447 22.9296L11.3275 26.2634M11.3275 26.2634C10.6626 26.6599 9.88891 26.0669 10.0537 25.368L11.3275 26.2634Z" fill="#FFBA79" stroke="#FFBA79" stroke-linejoin="round"/>
</svg>
