<svg width="17" height="15" viewBox="0 0 17 15" fill="none" xmlns="http://www.w3.org/2000/svg">
<path d="M7.71161 0.636941C7.95975 -0.126777 9.04021 -0.126776 9.28836 0.636942L10.5472 4.51125C10.6582 4.85279 10.9764 5.08403 11.3356 5.08403H15.4093C16.2123 5.08403 16.5462 6.11161 15.8965 6.58361L12.6008 8.97806C12.3103 9.18915 12.1887 9.56331 12.2997 9.90486L13.5585 13.7792C13.8067 14.5429 12.9326 15.178 12.2829 14.706L8.98722 12.3115C8.69669 12.1004 8.30327 12.1004 8.01274 12.3115L4.71706 14.706C4.0674 15.178 3.19329 14.5429 3.44144 13.7792L4.70028 9.90486C4.81125 9.56331 4.68968 9.18915 4.39914 8.97806L1.10347 6.58361C0.453808 6.11161 0.787688 5.08403 1.59071 5.08403H5.66439C6.02351 5.08403 6.34179 4.85279 6.45277 4.51125L7.71161 0.636941Z" fill="#FFBA79"/>
</svg>
