<svg width="34" height="32" viewBox="0 0 34 32" fill="none" xmlns="http://www.w3.org/2000/svg">
<path d="M16.9448 22.9296C17.1024 22.836 17.2985 22.8362 17.4559 22.93L23.0723 26.2767L23.0724 26.2767C23.7374 26.6733 24.5112 26.0801 24.3462 25.3811L22.8575 19.088C22.8144 18.9055 22.8769 18.7143 23.0195 18.5926L27.9862 14.3526L27.9864 14.3524C28.5462 13.8749 28.2572 12.9573 27.5004 12.898L27.4978 12.8978L20.9612 12.3511C20.7771 12.3357 20.6165 12.2201 20.5435 12.0504L17.9857 6.10375L17.9851 6.10217C17.6976 5.42753 16.7023 5.42753 16.4149 6.10217L16.4141 6.10413L13.8563 12.0375C13.7832 12.2069 13.6227 12.3224 13.4388 12.3378L6.90219 12.8845L6.89958 12.8847L6.89958 12.8847C6.14278 12.944 5.85373 13.8616 6.41358 14.3391L6.41375 14.3392L11.3805 18.5792C11.5231 18.701 11.5856 18.8922 11.5424 19.0746L10.0538 25.3677L16.9448 22.9296ZM16.9448 22.9296L11.3285 26.2629L11.3276 26.2634M16.9448 22.9296L11.3276 26.2634M11.3276 26.2634C10.6627 26.6599 9.88897 26.0669 10.0538 25.368L11.3276 26.2634Z" fill="#FFBA79" stroke="#FFBA79" stroke-linejoin="round"/>
</svg>
