<svg width="34" height="32" viewBox="0 0 34 32" fill="none" xmlns="http://www.w3.org/2000/svg">
<path d="M16.9047 22.9296C17.0623 22.836 17.2584 22.8362 17.4159 22.93L23.0322 26.2767L23.0323 26.2767C23.6973 26.6733 24.4711 26.0801 24.3061 25.3811L22.8175 19.088C22.7743 18.9055 22.8368 18.7143 22.9794 18.5926L27.9461 14.3526L27.9463 14.3524C28.5062 13.8749 28.2171 12.9573 27.4603 12.898L27.4577 12.8978L20.9211 12.3511C20.737 12.3357 20.5765 12.2201 20.5035 12.0504L17.9457 6.10375L17.945 6.10217C17.6576 5.42753 16.6623 5.42753 16.3748 6.10217L16.374 6.10413L13.8162 12.0375C13.7431 12.2069 13.5826 12.3224 13.3987 12.3378L6.86212 12.8845L6.85951 12.8847L6.85951 12.8847C6.10271 12.944 5.81366 13.8616 6.37351 14.3391L6.37368 14.3392L11.3404 18.5792C11.483 18.701 11.5455 18.8922 11.5024 19.0746L10.0137 25.3677L16.9047 22.9296ZM16.9047 22.9296L11.2884 26.2629L11.2875 26.2634M16.9047 22.9296L11.2875 26.2634M11.2875 26.2634C10.6226 26.6599 9.8489 26.0669 10.0137 25.368L11.2875 26.2634Z" fill="#FFBA79" stroke="#FFBA79" stroke-linejoin="round"/>
</svg>
