<svg width="33" height="32" viewBox="0 0 33 32" fill="none" xmlns="http://www.w3.org/2000/svg">
<path d="M16.4648 22.9296C16.6224 22.836 16.8185 22.8362 16.9759 22.93L22.5923 26.2767L22.5924 26.2767C23.2574 26.6733 24.0312 26.0801 23.8661 25.3811L22.3775 19.088C22.3344 18.9055 22.3969 18.7143 22.5395 18.5926L27.5062 14.3526L27.5064 14.3524C28.0662 13.8749 27.7772 12.9573 27.0204 12.898L27.0178 12.8978L20.4812 12.3511C20.2971 12.3357 20.1365 12.2201 20.0635 12.0504L17.5057 6.10375L17.505 6.10217C17.2176 5.42753 16.2223 5.42753 15.9349 6.10217L15.9341 6.10413L13.3763 12.0375C13.3032 12.2069 13.1427 12.3224 12.9588 12.3378L6.42218 12.8845L6.41957 12.8847L6.41957 12.8847C5.66277 12.944 5.37372 13.8616 5.93357 14.3391L5.93374 14.3392L10.9005 18.5792C11.043 18.701 11.1056 18.8922 11.0624 19.0746L9.5738 25.3677L16.4648 22.9296ZM16.4648 22.9296L10.8484 26.2629L10.8476 26.2634M16.4648 22.9296L10.8476 26.2634M10.8476 26.2634C10.1826 26.6599 9.40896 26.0669 9.57374 25.368L10.8476 26.2634Z" fill="#FFBA79" stroke="#FFBA79" stroke-linejoin="round"/>
</svg>
