<svg width="13" height="13" viewBox="0 0 13 13" fill="none" xmlns="http://www.w3.org/2000/svg">
<path d="M6.00196 1.03752C6.19315 0.4491 7.0256 0.4491 7.21679 1.03752L8.18667 4.02252C8.27218 4.28566 8.5174 4.46383 8.79409 4.46383L11.9327 4.46383C12.5514 4.46383 12.8086 5.25554 12.3081 5.6192L9.76891 7.46403C9.54506 7.62666 9.4514 7.91494 9.5369 8.17808L10.5068 11.1631C10.698 11.7515 10.0245 12.2408 9.52397 11.8771L6.98478 10.0323C6.76093 9.86968 6.45782 9.86968 6.23397 10.0323L3.69478 11.8771C3.19424 12.2408 2.52078 11.7515 2.71197 11.1631L3.68185 8.17808C3.76735 7.91494 3.67369 7.62666 3.44984 7.46403L0.910646 5.6192C0.41011 5.25554 0.667352 4.46383 1.28605 4.46383L4.42466 4.46383C4.70135 4.46383 4.94657 4.28566 5.03208 4.02252L6.00196 1.03752Z" fill="#FFBA79"/>
</svg>
