<svg width="33" height="32" viewBox="0 0 33 32" fill="none" xmlns="http://www.w3.org/2000/svg">
<path d="M15.9848 22.9296C16.1424 22.836 16.3385 22.8362 16.4959 22.93L22.1123 26.2767L22.1124 26.2767C22.7774 26.6733 23.5512 26.0801 23.3862 25.3811L21.8976 19.088C21.8544 18.9055 21.9169 18.7143 22.0595 18.5926L27.0262 14.3526L27.0264 14.3524C27.5862 13.8749 27.2972 12.9573 26.5404 12.898L26.5378 12.8978L20.0012 12.3511C19.8171 12.3357 19.6565 12.2201 19.5835 12.0504L17.0257 6.10375L17.0251 6.10217C16.7376 5.42753 15.7423 5.42753 15.4549 6.10217L15.4541 6.10413L12.8963 12.0375C12.8232 12.2069 12.6627 12.3224 12.4788 12.3378L5.9422 12.8845L5.93959 12.8847L5.93959 12.8847C5.18279 12.944 4.89374 13.8616 5.45358 14.3391L5.45376 14.3392L10.4205 18.5792C10.5631 18.701 10.6256 18.8922 10.5824 19.0746L9.09382 25.3677L15.9848 22.9296ZM15.9848 22.9296L10.3685 26.2629L10.3676 26.2634M15.9848 22.9296L10.3676 26.2634M10.3676 26.2634C9.70266 26.6599 8.92898 26.0669 9.09376 25.368L10.3676 26.2634Z" fill="#FFBA79" stroke="#FFBA79" stroke-linejoin="round"/>
</svg>
