<svg width="13" height="13" viewBox="0 0 13 13" fill="none" xmlns="http://www.w3.org/2000/svg">
<path d="M5.51759 1.03752C5.70877 0.4491 6.54123 0.4491 6.73241 1.03752L7.7023 4.02252C7.7878 4.28566 8.03302 4.46383 8.30971 4.46383L11.4483 4.46383C12.067 4.46383 12.3243 5.25554 11.8237 5.6192L9.28454 7.46403C9.06069 7.62666 8.96702 7.91494 9.05252 8.17808L10.0224 11.1631C10.2136 11.7515 9.54013 12.2408 9.03959 11.8771L6.5004 10.0323C6.27656 9.86968 5.97344 9.86968 5.7496 10.0323L3.2104 11.8771C2.70987 12.2408 2.0364 11.7515 2.22759 11.1631L3.19748 8.17808C3.28298 7.91494 3.18931 7.62666 2.96546 7.46403L0.426271 5.6192C-0.0742649 5.25554 0.182977 4.46383 0.801673 4.46383L3.94029 4.46383C4.21698 4.46383 4.4622 4.28566 4.5477 4.02252L5.51759 1.03752Z" fill="#FFBA79"/>
</svg>
