<svg width="33" height="32" viewBox="0 0 33 32" fill="none" xmlns="http://www.w3.org/2000/svg">
<path d="M16.4247 22.9296C16.5823 22.836 16.7784 22.8362 16.9358 22.93L22.5522 26.2767L22.5523 26.2767C23.2173 26.6733 23.9911 26.0801 23.8261 25.3811L22.3375 19.088C22.2943 18.9055 22.3568 18.7143 22.4994 18.5926L27.4661 14.3526L27.4663 14.3524C28.0262 13.8749 27.7371 12.9573 26.9803 12.898L26.9777 12.8978L20.4411 12.3511C20.257 12.3357 20.0964 12.2201 20.0235 12.0504L17.4657 6.10375L17.465 6.10217C17.1775 5.42753 16.1823 5.42753 15.8948 6.10217L15.894 6.10413L13.3362 12.0375C13.2631 12.2069 13.1026 12.3224 12.9187 12.3378L6.38211 12.8845L6.3795 12.8847L6.3795 12.8847C5.6227 12.944 5.33365 13.8616 5.8935 14.3391L5.89367 14.3392L10.8604 18.5792C11.003 18.701 11.0655 18.8922 11.0223 19.0746L9.53373 25.3677L16.4247 22.9296ZM16.4247 22.9296L10.8084 26.2629L10.8075 26.2634M16.4247 22.9296L10.8075 26.2634M10.8075 26.2634C10.1426 26.6599 9.36889 26.0669 9.53368 25.368L10.8075 26.2634Z" fill="#FFBA79" stroke="#FFBA79" stroke-linejoin="round"/>
</svg>
