<svg width="21" height="21" viewBox="0 0 21 21" fill="none" xmlns="http://www.w3.org/2000/svg">
<path d="M18.8497 8.86481L18.0373 12.3298C17.341 15.3223 15.9649 16.5326 13.3786 16.2839C12.9642 16.2507 12.5165 16.1761 12.0357 16.0601L10.6431 15.7285C7.1864 14.9078 6.11706 13.2002 6.92942 9.73521L7.74179 6.26192C7.90758 5.55731 8.10653 4.94389 8.35521 4.43824C9.32508 2.43218 10.9747 1.89337 13.7434 2.54824L15.1277 2.87152C18.601 3.68389 19.6621 5.39981 18.8497 8.86481Z" stroke="#7676B2" stroke-width="1.24342" stroke-linecap="round" stroke-linejoin="round"/>
<path d="M13.3788 16.2839C12.8649 16.632 12.2183 16.9222 11.4308 17.1792L10.121 17.6102C6.83012 18.6713 5.09762 17.7843 4.02828 14.4934L2.96723 11.219C1.90617 7.9281 2.78486 6.18731 6.07578 5.12626L7.38552 4.69521C7.72539 4.58744 8.04867 4.49626 8.35539 4.43823C8.1067 4.94389 7.90775 5.55731 7.74196 6.26192L6.9296 9.73521C6.11723 13.2002 7.18657 14.9078 10.6433 15.7285L12.0359 16.0601C12.5167 16.1761 12.9643 16.2507 13.3788 16.2839Z" stroke="#7676B2" stroke-width="1.24342" stroke-linecap="round" stroke-linejoin="round"/>
<path d="M11.3726 7.28149L15.393 8.3011" stroke="#7676B2" stroke-width="1.24342" stroke-linecap="round" stroke-linejoin="round"/>
<path d="M10.5602 10.4894L12.9641 11.1028" stroke="#7676B2" stroke-width="1.24342" stroke-linecap="round" stroke-linejoin="round"/>
</svg>
