<svg width="8" height="9" viewBox="0 0 8 9" fill="none" xmlns="http://www.w3.org/2000/svg">
<path d="M2.04119 4.04077C1.69983 4.04077 1.42053 4.32007 1.42053 4.66143C1.42053 5.00279 1.69983 5.28209 2.04119 5.28209C2.38255 5.28209 2.66185 5.00279 2.66185 4.66143C2.66185 4.32007 2.38255 4.04077 2.04119 4.04077Z" fill="#141522" stroke="#141522" stroke-width="0.372396"/>
<path d="M6.38586 4.04077C6.04449 4.04077 5.7652 4.32007 5.7652 4.66143C5.7652 5.00279 6.04449 5.28209 6.38586 5.28209C6.72722 5.28209 7.00652 5.00279 7.00652 4.66143C7.00652 4.32007 6.72722 4.04077 6.38586 4.04077Z" fill="#141522" stroke="#141522" stroke-width="0.372396"/>
<path d="M4.21349 4.04077C3.87213 4.04077 3.59283 4.32007 3.59283 4.66143C3.59283 5.00279 3.87213 5.28209 4.21349 5.28209C4.55486 5.28209 4.83415 5.00279 4.83415 4.66143C4.83415 4.32007 4.55486 4.04077 4.21349 4.04077Z" fill="#141522" stroke="#141522" stroke-width="0.372396"/>
</svg>
