<svg width="17" height="16" viewBox="0 0 17 16" fill="none" xmlns="http://www.w3.org/2000/svg">
<path d="M14.5445 6.83587L13.9186 9.50552C13.3821 11.8111 12.3219 12.7436 10.3293 12.552C10.0099 12.5264 9.66505 12.469 9.29462 12.3795L8.22165 12.1241C5.55839 11.4918 4.7345 10.1761 5.3604 7.50648L5.9863 4.83044C6.11403 4.28757 6.26731 3.81495 6.45892 3.42536C7.20616 1.87978 8.47712 1.46464 10.6103 1.96919L11.6769 2.21827C14.3529 2.84417 15.1704 4.16622 14.5445 6.83587Z" stroke="#54577A" stroke-width="0.958008" stroke-linecap="round" stroke-linejoin="round"/>
<path d="M10.3294 12.552C9.9334 12.8203 9.43523 13.0438 8.8285 13.2418L7.81939 13.5739C5.28387 14.3914 3.94904 13.708 3.12516 11.1725L2.30766 8.64975C1.49016 6.11422 2.16715 4.77301 4.70268 3.95551L5.71178 3.6234C5.97363 3.54038 6.22271 3.47012 6.45902 3.42542C6.26742 3.815 6.11414 4.28762 5.98641 4.83049L5.36051 7.50653C4.73461 10.1762 5.5585 11.4918 8.22176 12.1241L9.29473 12.3796C9.66516 12.469 10.01 12.5265 10.3294 12.552Z" stroke="#54577A" stroke-width="0.958008" stroke-linecap="round" stroke-linejoin="round"/>
<path d="M8.78369 5.61597L11.8812 6.40153" stroke="#54577A" stroke-width="0.958008" stroke-linecap="round" stroke-linejoin="round"/>
<path d="M8.15778 8.08752L10.0099 8.56014" stroke="#54577A" stroke-width="0.958008" stroke-linecap="round" stroke-linejoin="round"/>
</svg>
