<svg width="16" height="16" viewBox="0 0 16 16" fill="none" xmlns="http://www.w3.org/2000/svg">
<path d="M14.0289 6.83587L13.403 9.50552C12.8665 11.8111 11.8063 12.7436 9.81364 12.552C9.49431 12.5264 9.14942 12.469 8.77899 12.3795L7.70603 12.1241C5.04276 11.4918 4.21888 10.1761 4.84478 7.50648L5.47067 4.83044C5.59841 4.28757 5.75169 3.81495 5.94329 3.42536C6.69054 1.87978 7.96149 1.46464 10.0947 1.96919L11.1612 2.21827C13.8373 2.84417 14.6548 4.16622 14.0289 6.83587Z" stroke="#54577A" stroke-width="0.958008" stroke-linecap="round" stroke-linejoin="round"/>
<path d="M9.81375 12.552C9.41777 12.8203 8.91961 13.0438 8.31287 13.2418L7.30377 13.5739C4.76824 14.3914 3.43342 13.708 2.60953 11.1725L1.79203 8.64975C0.974531 6.11422 1.65152 4.77301 4.18705 3.95551L5.19615 3.6234C5.45801 3.54038 5.70709 3.47012 5.9434 3.42542C5.7518 3.815 5.59852 4.28762 5.47078 4.83049L4.84488 7.50653C4.21898 10.1762 5.04287 11.4918 7.70613 12.1241L8.7791 12.3796C9.14953 12.469 9.49441 12.5265 9.81375 12.552Z" stroke="#54577A" stroke-width="0.958008" stroke-linecap="round" stroke-linejoin="round"/>
<path d="M8.26807 5.61597L11.3656 6.40153" stroke="#54577A" stroke-width="0.958008" stroke-linecap="round" stroke-linejoin="round"/>
<path d="M7.64215 8.08752L9.4943 8.56014" stroke="#54577A" stroke-width="0.958008" stroke-linecap="round" stroke-linejoin="round"/>
</svg>
