<svg width="13" height="14" viewBox="0 0 13 14" fill="none" xmlns="http://www.w3.org/2000/svg">
<path d="M2.80957 5.71289C2.22412 5.71289 1.74512 6.19189 1.74512 6.77734C1.74512 7.36279 2.22412 7.8418 2.80957 7.8418C3.39502 7.8418 3.87402 7.36279 3.87402 6.77734C3.87402 6.19189 3.39502 5.71289 2.80957 5.71289Z" fill="#141522" stroke="#141522" stroke-width="0.638672"/>
<path d="M10.2608 5.71289C9.67535 5.71289 9.19634 6.19189 9.19634 6.77734C9.19634 7.36279 9.67535 7.8418 10.2608 7.8418C10.8462 7.8418 11.3252 7.36279 11.3252 6.77734C11.3252 6.19189 10.8462 5.71289 10.2608 5.71289Z" fill="#141522" stroke="#141522" stroke-width="0.638672"/>
<path d="M6.5351 5.71289C5.94965 5.71289 5.47065 6.19189 5.47065 6.77734C5.47065 7.36279 5.94965 7.8418 6.5351 7.8418C7.12055 7.8418 7.59956 7.36279 7.59956 6.77734C7.59956 6.19189 7.12055 5.71289 6.5351 5.71289Z" fill="#141522" stroke="#141522" stroke-width="0.638672"/>
</svg>
