<svg xmlns="http://www.w3.org/2000/svg" version="1.1" xmlns:xlink="http://www.w3.org/1999/xlink" xmlns:svgjs="http://svgjs.dev/svgjs" width="1000" height="1000" viewBox="0 0 1000 1000"><rect width="1000" height="1000" fill="#ffffff"></rect><g transform="matrix(0.7,0,0,0.7,149.57575757575756,282.1265587044535)"><svg viewBox="0 0 396 247" data-background-color="#ffffff" preserveAspectRatio="xMidYMid meet" height="623" width="1000" xmlns="http://www.w3.org/2000/svg" xmlns:xlink="http://www.w3.org/1999/xlink"><g id="tight-bounds" transform="matrix(1,0,0,1,0.2400000000000091,-0.09999999999999432)"><svg viewBox="0 0 395.52 247.2" height="247.2" width="395.52"><g><svg></svg></g><g><svg viewBox="0 0 395.52 247.2" height="247.2" width="395.52"><g><path xmlns="http://www.w3.org/2000/svg" d="M55.039 247.2l26.403-45.732 3.536 0-24.539 42.502h274.642l-24.539-42.502 3.536 0 26.403 45.732zM197.76 0l26.403 45.732-3.535 0-22.868-39.608-22.868 39.608-3.535 0z" fill="#000000" fill-rule="nonzero" stroke="none" stroke-width="1" stroke-linecap="butt" stroke-linejoin="miter" stroke-miterlimit="10" stroke-dasharray="" stroke-dashoffset="0" font-family="none" font-weight="none" font-size="none" text-anchor="none" style="mix-blend-mode: normal" data-fill-palette-color="tertiary"></path></g><g transform="matrix(1,0,0,1,59.85954070156376,67.97999999999999)"><svg viewBox="0 0 275.80091859687246 111.24" height="111.24" width="275.80091859687246"><g><svg viewBox="0 0 275.80091859687246 111.24" height="111.24" width="275.80091859687246"><g><svg viewBox="0 0 587.9508250138831 237.14079745376895" height="111.24" width="275.80091859687246"><g transform="matrix(1,0,0,1,0,32.7741623109044)"><svg viewBox="0 0 354.35382656423843 171.59247283196015" height="171.59247283196015" width="354.35382656423843"><g id="textblocktransform"><svg viewBox="0 0 354.35382656423843 171.59247283196015" height="171.59247283196015" width="354.35382656423843" id="textblock"><g><svg viewBox="0 0 354.35382656423843 110.5525368" height="110.5525368" width="354.35382656423843"><g transform="matrix(1,0,0,1,0,0)"><svg width="354.35382656423843" viewBox="4.150000095367432 -37 120.98999786376953 37.75" height="110.5525368" data-palette-color="#000000"><path d="M31.1-36.25Q31.4-36.2 31.55-35.95L31.55-35.95Q31.15-35.45 31-34.43 30.85-33.4 30.85-33.25L30.85-33.25Q30.7-32.4 30.1-32.4L30.1-32.4Q27.9-32.4 21.4-32.8L21.4-32.8Q16-33.1 15.25-33.1L15.25-33.1Q14.25-33.1 13.98-32.9 13.7-32.7 13.5-32.05L13.5-32.05Q13-30.35 10.55-18.3L10.55-18.3Q13.95-18.1 16.7-18.1L16.7-18.1Q23.4-18.1 27.5-19.3L27.5-19.3 27.7-19.1Q27.55-18.8 27.3-17.75 27.05-16.7 27.05-16.15L27.05-16.15Q24.6-16.15 22.25-16.2L22.25-16.2 10.1-16.25Q7.25-1.9 7.25-0.85L7.25-0.85 7.3-0.15Q6.6 0.2 5.1 0.2L5.1 0.2Q4.6 0.2 4.38 0.08 4.15-0.05 4.15-0.55L4.15-0.55Q4.15-0.95 4.45-2.35L4.45-2.35 7.6-16.9Q9.05-23.35 9.93-27.53 10.8-31.7 10.8-32.4L10.8-32.4Q10.8-33.2 9.55-33.2L9.55-33.2 8-33.1 6.65-33.05Q6.05-33.05 6.05-33.35L6.05-33.35Q6.05-33.6 6.23-34.23 6.4-34.85 6.7-35.35L6.7-35.35Q12.55-35 20-35L20-35Q25.65-35 27.68-35.2 29.7-35.4 31.1-36.25L31.1-36.25ZM68.1-5.45Q68.3-4.95 68.3-4.5L68.3-4.5Q68.3-3.35 67.25-2.23 66.2-1.1 64.72-0.4 63.25 0.3 62.1 0.3L62.1 0.3Q59.5 0.3 58.32-2.88 57.15-6.05 56.5-10.6L56.5-10.6Q56.35-11.65 55.95-11.98 55.55-12.3 54.5-12.3L54.5-12.3 47.6-12.25Q46.1-12.25 43.9-12.35L43.9-12.35 43.3-11.4Q40.7-7.2 38.97-4.88 37.25-2.55 35.1-1 32.95 0.55 30.3 0.55L30.3 0.55Q28.45 0.55 27.27-0.15 26.1-0.85 25.55-1.85 25-2.85 25-3.75L25-3.75Q25-4.7 25.5-5.48 26-6.25 26.65-6.6L26.65-6.6Q26.65-4.45 27.67-3.13 28.7-1.8 30.65-1.8L30.65-1.8Q33.35-1.8 35.8-4.42 38.25-7.05 41.65-12.55L41.65-12.55Q39-12.85 38.85-13.55L38.85-13.55Q38.75-13.8 38.97-14.4 39.2-15 39.5-15.3L39.5-15.3Q40.25-15 42.95-14.65L42.95-14.65Q43.55-15.7 44.55-17.3L44.55-17.3Q53.15-31.55 55.65-35.5L55.65-35.5Q56.2-36.4 56.7-36.7 57.2-37 57.8-37L57.8-37Q58.6-37 59.45-36.75L59.45-36.75Q58.4-34.9 58.3-30.5L58.3-30.5 58.25-28.05Q58.25-22.95 58.65-16.7L58.65-16.7Q59.1-9.6 60.02-5.98 60.95-2.35 63.1-2.35L63.1-2.35Q64.15-2.35 65.52-3.23 66.9-4.1 68.1-5.45L68.1-5.45ZM51-14.15Q52.35-14.15 56.1-14.3L56.1-14.3Q56-18 55.92-22.48 55.85-26.95 55.8-30.25L55.8-30.25 55.8-31.9Q50.05-22.25 45.2-14.4L45.2-14.4Q48.45-14.15 51-14.15L51-14.15ZM75.45-14.55Q72.8-16.1 70.95-19.1 69.1-22.1 69.1-25.2L69.1-25.2Q69.1-28.2 70.95-30.68 72.8-33.15 76.57-34.63 80.35-36.1 85.85-36.1L85.85-36.1Q88.55-36.1 90.7-35.8 92.85-35.5 96.4-34.85L96.4-34.85Q100.65-33.95 102.85-33.95L102.85-33.95Q105.05-33.95 106.92-34.68 108.8-35.4 109.85-37L109.85-37Q109.3-34.6 107.4-33.1 105.5-31.6 102.05-31.6L102.05-31.6Q100.45-31.6 98.2-31.9 95.95-32.2 92.25-32.8L92.25-32.8Q88.65-33.4 86.37-33.7 84.1-34 82.55-34L82.55-34Q79.7-34 77.25-32.93 74.8-31.85 73.3-29.83 71.8-27.8 71.8-25.1L71.8-25.1Q71.8-22.3 73.5-19.98 75.2-17.65 78.65-15.2L78.65-15.2 78.45-14.95Q77.4-14.95 76.8-14.88 76.2-14.8 75.45-14.55L75.45-14.55ZM73.7 0.75Q71.6 0.75 69.35 0.33 67.1-0.1 65.8-0.7L65.8-0.7Q65.25-2.2 64.95-3.45L64.95-3.45 65.4-3.95Q67.2-2.2 68.97-1.45 70.75-0.7 73.4-0.7L73.4-0.7Q76.3-0.7 78.55-1.75 80.8-2.8 82.65-5.68 84.5-8.55 85.8-13.8L85.8-13.8 86.45-16.5Q88.15-24.4 89.65-29.45L89.65-29.45Q90.45-30.4 91.3-30.9 92.15-31.4 93.5-32L93.5-32 93.95-31.85Q92.75-30.25 91.65-26.38 90.55-22.5 89.3-16.9L89.3-16.9 88.55-13.7Q84.95 0.75 73.7 0.75L73.7 0.75ZM108.44 0.6Q105.54 0.6 102.74-0.25 99.94-1.1 99.44-2.1L99.44-2.1Q99.69-3.3 99.89-5.38 100.09-7.45 100.09-8.55L100.09-8.55Q100.49-8.9 101.24-8.9L101.24-8.9Q101.24-6.05 101.87-4.45 102.49-2.85 103.94-2.13 105.39-1.4 108.04-1.4L108.04-1.4Q112.74-1.4 115.87-3.38 118.99-5.35 118.99-9L118.99-9Q118.99-10.9 117.89-12.78 116.79-14.65 113.99-17.25L113.99-17.25 112.64-18.5Q110.04-20.85 108.82-22.58 107.59-24.3 107.59-26.75L107.59-26.75Q107.59-29.15 108.82-31.13 110.04-33.1 112.32-34.23 114.59-35.35 117.54-35.35L117.54-35.35Q120.44-35.35 122.49-34.35 124.54-33.35 125.14-32L125.14-32Q125.14-30.5 124.69-28.55 124.24-26.6 124.14-26.25L124.14-26.25Q123.49-26.25 122.89-26.45L122.89-26.45 123.04-27.45Q123.14-28.35 123.14-28.9L123.14-28.9Q123.14-31.2 121.92-32.23 120.69-33.25 118.09-33.25L118.09-33.25Q114.44-33.25 112.27-31.6 110.09-29.95 110.09-27.3L110.09-27.3Q110.09-25.25 111.39-23.58 112.69-21.9 115.39-19.5L115.39-19.5 116.44-18.55Q119.64-15.65 120.82-13.85 121.99-12.05 121.99-9.7L121.99-9.7Q121.99-6.3 119.92-3.98 117.84-1.65 114.72-0.53 111.59 0.6 108.44 0.6L108.44 0.6Z" opacity="1" transform="matrix(1,0,0,1,0,0)" fill="#000000" class="wordmark-text-0" data-fill-palette-color="primary" id="text-0"></path></svg></g></svg></g><g transform="matrix(1,0,0,1,0,136.6513374775968)"><svg viewBox="0 0 354.35382656423843 34.94113535436336" height="34.94113535436336" width="354.35382656423843"><g transform="matrix(1,0,0,1,0,0)"><svg width="354.35382656423843" viewBox="0.20000000298023224 -39.45000076293945 412.1999816894531 40.650001525878906" height="34.94113535436336" data-palette-color="#000000"><path d="M6.15-1.2Q4.75-0.95 3.1-0.6 1.45-0.25 0.2 0.05L0.2 0.05Q0.8-2.1 1.38-4.78 1.95-7.45 2.53-10.4 3.1-13.35 3.63-16.38 4.15-19.4 4.65-22.2L4.65-22.2Q5.7-28.85 6.75-35.95L6.75-35.95 23.5-36.8 22.05-30.65 14.2-30.65 12.65-21.75Q14.2-21.8 15.6-21.8L15.6-21.8Q16.75-21.8 17.95-21.8 19.15-21.8 19.8-21.85L19.8-21.85Q19.65-20.45 19.43-19.1 19.2-17.75 19-16.4L19-16.4Q18.35-16.4 17.15-16.43 15.95-16.45 14.68-16.5 13.4-16.55 11.8-16.6L11.8-16.6 9.5-1.85Q7.8-1.55 6.15-1.2L6.15-1.2ZM37.85-9.75Q37.15-6.9 35.87-4.9 34.6-2.9 32.87-1.6 31.15-0.3 29.2 0.3 27.25 0.9 25.3 0.9L25.3 0.9Q24.15 0.9 22.95 0.53 21.75 0.15 20.8-0.6 19.85-1.35 19.22-2.5 18.6-3.65 18.6-5.2L18.6-5.2Q18.6-5.4 18.6-5.6 18.6-5.8 18.65-6L18.65-6Q18.85-8.05 19.3-10.95 19.75-13.85 20.25-17 20.75-20.15 21.35-23.33 21.95-26.5 22.42-29.1 22.9-31.7 23.25-33.43 23.6-35.15 23.7-35.55L23.7-35.55Q24.75-35.65 26.2-35.8 27.65-35.95 28.9-36.05L28.9-36.05Q30.45-36.2 31.95-36.35L31.95-36.35Q30.65-30.3 29.65-25.4L29.65-25.4Q29.2-23.3 28.77-21.2 28.35-19.1 27.97-17.35 27.6-15.6 27.32-14.33 27.05-13.05 26.87-12.25 26.7-11.45 26.47-10.23 26.25-9 26.25-8L26.25-8Q26.25-7.2 26.65-6.68 27.05-6.15 27.65-6.15L27.65-6.15Q28.5-6.15 29.05-6.83 29.6-7.5 29.97-8.45 30.35-9.4 30.52-10.38 30.7-11.35 30.85-11.9L30.85-11.9Q31.15-13.35 31.52-15.13 31.9-16.9 32.27-18.82 32.65-20.75 33.02-22.75 33.4-24.75 33.75-26.65L33.75-26.65Q34.6-31.05 35.4-35.75L35.4-35.75 43-36.25Q43-36.25 42.75-34.95 42.5-33.65 42.1-31.5 41.7-29.35 41.22-26.6 40.75-23.85 40.15-20.88 39.55-17.9 38.97-15.03 38.4-12.15 37.85-9.75L37.85-9.75ZM51.5-1.35L42.5 0.05Q43.65-5.45 44.7-10.8L44.7-10.8Q45.15-13.05 45.6-15.5 46.05-17.95 46.47-20.33 46.9-22.7 47.22-24.93 47.55-27.15 47.8-29L47.8-29Q46.65-29.15 45.47-29.1 44.3-29.05 43.15-29.4L43.15-29.4Q43.2-30.2 43.2-31.25 43.2-32.3 43.25-33.35L43.25-33.35Q43.3-34.5 43.35-35.8L43.35-35.8Q44.65-35.7 45.95-35.65 47.25-35.6 48.55-35.6L48.55-35.6Q51.1-35.6 53.47-35.73 55.85-35.85 57.87-36.02 59.9-36.2 61.85-36.45L61.85-36.45 61.3-33.75Q61.05-32.6 60.82-31.4 60.6-30.2 60.4-29.35L60.4-29.35Q59.3-29.05 58.17-28.93 57.05-28.8 55.95-28.6L55.95-28.6Q55.6-26.9 55.2-24.83 54.8-22.75 54.42-20.53 54.05-18.3 53.7-16 53.35-13.7 53-11.6L53-11.6Q52.2-6.65 51.5-1.35L51.5-1.35ZM76.89-9.75Q76.19-6.9 74.92-4.9 73.64-2.9 71.92-1.6 70.19-0.3 68.24 0.3 66.29 0.9 64.34 0.9L64.34 0.9Q63.19 0.9 61.99 0.53 60.79 0.15 59.84-0.6 58.89-1.35 58.27-2.5 57.64-3.65 57.64-5.2L57.64-5.2Q57.64-5.4 57.64-5.6 57.64-5.8 57.69-6L57.69-6Q57.89-8.05 58.34-10.95 58.79-13.85 59.29-17 59.79-20.15 60.39-23.33 60.99-26.5 61.47-29.1 61.94-31.7 62.29-33.43 62.64-35.15 62.74-35.55L62.74-35.55Q63.79-35.65 65.24-35.8 66.69-35.95 67.94-36.05L67.94-36.05Q69.49-36.2 70.99-36.35L70.99-36.35Q69.69-30.3 68.69-25.4L68.69-25.4Q68.24-23.3 67.82-21.2 67.39-19.1 67.02-17.35 66.64-15.6 66.37-14.33 66.09-13.05 65.92-12.25 65.74-11.45 65.52-10.23 65.29-9 65.29-8L65.29-8Q65.29-7.2 65.69-6.68 66.09-6.15 66.69-6.15L66.69-6.15Q67.54-6.15 68.09-6.83 68.64-7.5 69.02-8.45 69.39-9.4 69.57-10.38 69.74-11.35 69.89-11.9L69.89-11.9Q70.19-13.35 70.57-15.13 70.94-16.9 71.32-18.82 71.69-20.75 72.07-22.75 72.44-24.75 72.79-26.65L72.79-26.65Q73.64-31.05 74.44-35.75L74.44-35.75 82.04-36.25Q82.04-36.25 81.79-34.95 81.54-33.65 81.14-31.5 80.74-29.35 80.27-26.6 79.79-23.85 79.19-20.88 78.59-17.9 78.02-15.03 77.44-12.15 76.89-9.75L76.89-9.75ZM85.34-2.05L77.24 0.05Q78.59-6.6 79.84-12.95L79.84-12.95Q80.29-15.65 80.84-18.57 81.39-21.5 81.87-24.38 82.34-27.25 82.77-29.93 83.19-32.6 83.44-34.8L83.44-34.8Q86.29-35.7 89.59-36.13 92.89-36.55 96.14-36.55L96.14-36.55Q98.09-36.55 99.37-36.1 100.64-35.65 101.37-34.83 102.09-34 102.39-32.9 102.69-31.8 102.69-30.45L102.69-30.45Q102.69-28.45 101.99-26.53 101.29-24.6 100.12-22.88 98.94-21.15 97.42-19.73 95.89-18.3 94.14-17.4L94.14-17.4Q95.04-15.4 96.07-13.03 97.09-10.65 97.99-8.5L97.99-8.5Q98.99-6 100.04-3.5L100.04-3.5 92.29-0.8Q91.29-4 90.49-6.8L90.49-6.8Q90.14-7.95 89.79-9.18 89.44-10.4 89.14-11.5 88.84-12.6 88.64-13.48 88.44-14.35 88.39-14.9L88.39-14.9 87.74-14.7Q87.44-13.1 87.02-10.95 86.59-8.8 86.24-6.8L86.24-6.8Q85.79-4.45 85.34-2.05L85.34-2.05ZM90.59-29.6L88.99-21.65Q89.94-21.75 91.32-22.45 92.69-23.15 93.94-24.13 95.19-25.1 96.09-26.15 96.99-27.2 96.99-28L96.99-28Q96.99-28.55 96.64-28.88 96.29-29.2 95.67-29.38 95.04-29.55 94.29-29.6 93.54-29.65 92.74-29.65L92.74-29.65Q92.19-29.65 91.62-29.63 91.04-29.6 90.59-29.6L90.59-29.6ZM115.79-2.45L99.64 0.05 106.19-35.5 121.99-36.85Q121.64-35.75 121.39-34.6L121.39-34.6Q121.14-33.65 120.91-32.63 120.69-31.6 120.54-30.8L120.54-30.8Q120.04-30.75 119.11-30.73 118.19-30.7 117.14-30.68 116.09-30.65 115.01-30.65 113.94-30.65 113.14-30.65L113.14-30.65 111.39-21.7Q112.94-21.8 114.29-21.85L114.29-21.85Q115.39-21.9 116.54-21.9 117.69-21.9 118.24-21.95L118.24-21.95Q118.04-20.55 117.86-19.2 117.69-17.85 117.44-16.45L117.44-16.45Q116.94-16.4 115.81-16.38 114.69-16.35 113.54-16.3L113.54-16.3Q112.24-16.25 110.69-16.2L110.69-16.2 108.99-7 116.29-8.15 115.79-2.45ZM144.43-1Q143.18-0.8 141.68-0.55 140.18-0.3 138.98-0.1L138.98-0.1Q139.18-1.75 139.38-3.35L139.38-3.35Q139.53-4.75 139.66-6.15 139.78-7.55 139.88-8.55L139.88-8.55 135.53-8.55 133.53-1.35Q132.43-1.2 130.93-1.03 129.43-0.85 128.13-0.7L128.13-0.7Q126.53-0.5 124.98-0.3L124.98-0.3Q126.98-6.95 128.93-13.4L128.93-13.4Q129.73-16.1 130.61-19.05 131.48-22 132.36-24.93 133.23-27.85 134.03-30.55 134.83-33.25 135.43-35.5L135.43-35.5Q138.83-35.75 142.36-36.1 145.88-36.45 149.23-37.05L149.23-37.05Q149.08-35.45 148.91-33.08 148.73-30.7 148.58-27.9 148.43-25.1 148.28-22.05 148.13-19 147.98-16.05L147.98-16.05Q147.73-9.15 147.43-1.4L147.43-1.4Q145.93-1.15 144.43-1L144.43-1ZM139.83-26.1L136.73-13.55Q136.93-13.55 137.46-13.58 137.98-13.6 138.56-13.63 139.13-13.65 139.63-13.68 140.13-13.7 140.33-13.75L140.33-13.75Q140.33-14.05 140.41-14.78 140.48-15.5 140.56-16.43 140.63-17.35 140.73-18.45 140.83-19.55 140.93-20.6L140.93-20.6Q141.13-23.15 141.43-26.1L141.43-26.1 141.73-30.45 140.98-30.4 139.83-26.1ZM155.58-1Q155.13-1 153.83-0.88 152.53-0.75 151.13-0.58 149.73-0.4 148.61-0.25 147.48-0.1 147.38-0.05L147.38-0.05Q147.98-2.2 148.58-4.83 149.18-7.45 149.81-10.33 150.43-13.2 151.01-16.15 151.58-19.1 152.13-21.85L152.13-21.85Q153.38-28.25 154.58-35L154.58-35 162.38-36.25Q161.08-29.55 159.78-23.1L159.78-23.1Q159.23-20.35 158.66-17.4 158.08-14.45 157.56-11.55 157.03-8.65 156.51-5.93 155.98-3.2 155.58-1L155.58-1ZM180.93-1.35L171.93 0.05Q173.08-5.45 174.13-10.8L174.13-10.8Q174.58-13.05 175.03-15.5 175.48-17.95 175.9-20.33 176.33-22.7 176.65-24.93 176.98-27.15 177.23-29L177.23-29Q176.08-29.15 174.9-29.1 173.73-29.05 172.58-29.4L172.58-29.4Q172.63-30.2 172.63-31.25 172.63-32.3 172.68-33.35L172.68-33.35Q172.73-34.5 172.78-35.8L172.78-35.8Q174.08-35.7 175.38-35.65 176.68-35.6 177.98-35.6L177.98-35.6Q180.53-35.6 182.9-35.73 185.28-35.85 187.3-36.02 189.33-36.2 191.28-36.45L191.28-36.45 190.73-33.75Q190.48-32.6 190.25-31.4 190.03-30.2 189.83-29.35L189.83-29.35Q188.73-29.05 187.6-28.93 186.48-28.8 185.38-28.6L185.38-28.6Q185.03-26.9 184.63-24.83 184.23-22.75 183.85-20.53 183.48-18.3 183.13-16 182.78-13.7 182.43-11.6L182.43-11.6Q181.63-6.65 180.93-1.35L180.93-1.35ZM202.07-2.45L185.92 0.05 192.47-35.5 208.27-36.85Q207.92-35.75 207.67-34.6L207.67-34.6Q207.42-33.65 207.2-32.63 206.97-31.6 206.82-30.8L206.82-30.8Q206.32-30.75 205.4-30.73 204.47-30.7 203.42-30.68 202.37-30.65 201.3-30.65 200.22-30.65 199.42-30.65L199.42-30.65 197.67-21.7Q199.22-21.8 200.57-21.85L200.57-21.85Q201.67-21.9 202.82-21.9 203.97-21.9 204.52-21.95L204.52-21.95Q204.32-20.55 204.15-19.2 203.97-17.85 203.72-16.45L203.72-16.45Q203.22-16.4 202.1-16.38 200.97-16.35 199.82-16.3L199.82-16.3Q198.52-16.25 196.97-16.2L196.97-16.2 195.27-7 202.57-8.15 202.07-2.45ZM223.92-10.75Q222.72-8 221.25-5.98 219.77-3.95 218.15-2.58 216.52-1.2 214.87-0.55 213.22 0.1 211.67 0.1L211.67 0.1Q210.12 0.1 208.85-0.6 207.57-1.3 206.62-2.7 205.67-4.1 205.1-6.15 204.52-8.2 204.52-10.95L204.52-10.95Q204.52-15.65 205.82-20.23 207.12-24.8 209.47-28.45 211.82-32.1 215.05-34.33 218.27-36.55 222.17-36.55L222.17-36.55Q223.37-36.55 224.47-36.05 225.57-35.55 226.37-34.65 227.17-33.75 227.65-32.45 228.12-31.15 228.12-29.55L228.12-29.55Q228.12-29.25 228.12-28.93 228.12-28.6 228.07-28.25L228.07-28.25 221.52-26.5Q220.92-27.75 220.12-27.75L220.12-27.75Q219.32-27.75 218.45-26.83 217.57-25.9 216.72-24.43 215.87-22.95 215.07-21.13 214.27-19.3 213.67-17.45 213.07-15.6 212.7-13.93 212.32-12.25 212.32-11.2L212.32-11.2Q212.32-9.6 212.75-8.95 213.17-8.3 213.87-8.3L213.87-8.3Q214.42-8.3 215.12-8.72 215.82-9.15 216.42-9.83 217.02-10.5 217.52-11.35 218.02-12.2 218.22-13.05L218.22-13.05 223.92-10.75ZM231.37-1.5L223.67 0.1Q225.07-6.9 226.37-13.55L226.37-13.55Q226.87-16.4 227.42-19.48 227.97-22.55 228.44-25.55 228.92-28.55 229.34-31.38 229.77-34.2 230.02-36.5L230.02-36.5Q231.17-36.45 232.14-36.38 233.12-36.3 234.07-36.25 235.02-36.2 235.99-36.18 236.97-36.15 238.12-36.15L238.12-36.15Q237.27-32.6 236.44-29.05 235.62-25.5 234.92-21.9L234.92-21.9 239.87-22.45Q240.57-26 241.12-29.33 241.67-32.65 242.57-36.2L242.57-36.2Q243.72-36.4 245.12-36.52 246.52-36.65 247.72-36.75 248.92-36.85 249.74-36.93 250.57-37 250.57-37L250.57-37Q249.87-34.75 249.24-32.08 248.62-29.4 248.02-26.53 247.42-23.65 246.87-20.7 246.32-17.75 245.87-15.1L245.87-15.1Q244.77-8.75 243.82-2.1L243.82-2.1 236.02-1.2Q236.67-4.2 237.17-7.05L237.17-7.05Q237.67-9.45 238.19-12.05 238.72-14.65 239.02-16.5L239.02-16.5 234.17-16.05Q233.82-14.15 233.34-11.65 232.87-9.15 232.47-6.9L232.47-6.9Q231.92-4.2 231.37-1.5L231.37-1.5ZM252.87-1.45L245.57 0.25Q247.07-6.95 248.42-13.7L248.42-13.7Q248.92-16.6 249.49-19.7 250.07-22.8 250.57-25.83 251.07-28.85 251.47-31.63 251.87-34.4 252.07-36.65L252.07-36.65Q252.72-36.6 253.17-36.6 253.62-36.6 254.22-36.6L254.22-36.6Q254.92-36.6 255.92-36.63 256.92-36.65 257.92-36.7 258.92-36.75 260.07-36.8L260.07-36.8Q260.77-33.3 261.32-30.05L261.32-30.05Q261.87-27.2 262.44-24.2 263.02-21.2 263.47-19.1L263.47-19.1Q263.67-20.1 263.92-21.43 264.17-22.75 264.47-24.2 264.77-25.65 265.04-27.13 265.32-28.6 265.62-30.05L265.62-30.05Q266.32-33.3 267.07-36.75L267.07-36.75 273.17-37.5Q271.47-29.85 270.17-23L270.17-23Q269.57-20.05 268.99-17.03 268.42-14 267.92-11.23 267.42-8.45 267.07-6.08 266.72-3.7 266.52-2.1L266.52-2.1Q266.37-2.1 265.34-1.88 264.32-1.65 262.99-1.35 261.67-1.05 260.34-0.75 259.02-0.45 258.37-0.2L258.37-0.2Q258.07-4.2 257.72-7.8L257.72-7.8Q257.57-9.35 257.39-10.98 257.22-12.6 257.02-14.1 256.82-15.6 256.62-16.9 256.42-18.2 256.22-19.15L256.22-19.15Q256.07-18.2 255.82-16.95 255.57-15.7 255.32-14.3 255.07-12.9 254.82-11.38 254.57-9.85 254.27-8.45L254.27-8.45Q253.62-5.1 252.87-1.45L252.87-1.45ZM295.91-27.05Q295.91-22.95 295.04-19.33 294.16-15.7 292.71-12.68 291.26-9.65 289.34-7.28 287.41-4.9 285.31-3.23 283.21-1.55 281.06-0.68 278.91 0.2 276.96 0.2L276.96 0.2Q275.31 0.2 273.96-0.43 272.61-1.05 271.61-2.27 270.61-3.5 270.04-5.43 269.46-7.35 269.46-10.05L269.46-10.05Q269.46-12.85 270.16-15.95 270.86-19.05 272.06-22.1 273.26-25.15 275.01-27.9 276.76-30.65 278.86-32.77 280.96-34.9 283.36-36.15 285.76-37.4 288.36-37.4L288.36-37.4Q290.61-37.4 292.09-36.48 293.56-35.55 294.39-34.08 295.21-32.6 295.56-30.75 295.91-28.9 295.91-27.05L295.91-27.05ZM276.91-11.35Q276.91-10.8 277.11-10.2 277.31-9.6 277.66-9.15 278.01-8.7 278.54-8.38 279.06-8.05 279.66-8.05L279.66-8.05Q281.91-8.05 283.66-9.6 285.41-11.15 286.56-13.4 287.71-15.65 288.34-18.2 288.96-20.75 288.96-22.85L288.96-22.85Q288.96-23.45 288.89-24.15 288.81-24.85 288.59-25.45 288.36-26.05 287.89-26.48 287.41-26.9 286.61-26.9L286.61-26.9Q285.01-26.9 283.66-26.1 282.31-25.3 281.24-23.98 280.16-22.65 279.36-20.98 278.56-19.3 277.99-17.57 277.41-15.85 277.16-14.2 276.91-12.55 276.91-11.35L276.91-11.35ZM306.36-1.6Q304.81-1.6 303.09-1.5 301.36-1.4 299.61-1.2 297.86-1 296.19-0.68 294.51-0.35 293.16 0.1L293.16 0.1Q293.46-2.15 293.86-4.9 294.26-7.65 294.79-10.6 295.31-13.55 295.84-16.55 296.36-19.55 296.91-22.3L296.91-22.3Q298.16-28.85 299.56-35.65L299.56-35.65 308.31-36.8Q306.96-31 305.71-25.5L305.71-25.5Q305.16-23.15 304.61-20.63 304.06-18.1 303.56-15.7 303.06-13.3 302.66-11.05 302.26-8.8 302.01-7.05L302.01-7.05Q303.26-7.15 304.69-7.18 306.11-7.2 307.21-7.2L307.21-7.2Q307.26-6.25 307.36-5.33 307.46-4.4 307.59-3.65 307.71-2.9 307.79-2.33 307.86-1.75 307.91-1.55L307.91-1.55Q307.51-1.55 307.14-1.58 306.76-1.6 306.36-1.6L306.36-1.6ZM335.66-27.05Q335.66-22.95 334.78-19.33 333.91-15.7 332.46-12.68 331.01-9.65 329.08-7.28 327.16-4.9 325.06-3.23 322.96-1.55 320.81-0.68 318.66 0.2 316.71 0.2L316.71 0.2Q315.06 0.2 313.71-0.43 312.36-1.05 311.36-2.27 310.36-3.5 309.78-5.43 309.21-7.35 309.21-10.05L309.21-10.05Q309.21-12.85 309.91-15.95 310.61-19.05 311.81-22.1 313.01-25.15 314.76-27.9 316.51-30.65 318.61-32.77 320.71-34.9 323.11-36.15 325.51-37.4 328.11-37.4L328.11-37.4Q330.36-37.4 331.83-36.48 333.31-35.55 334.13-34.08 334.96-32.6 335.31-30.75 335.66-28.9 335.66-27.05L335.66-27.05ZM316.66-11.35Q316.66-10.8 316.86-10.2 317.06-9.6 317.41-9.15 317.76-8.7 318.28-8.38 318.81-8.05 319.41-8.05L319.41-8.05Q321.66-8.05 323.41-9.6 325.16-11.15 326.31-13.4 327.46-15.65 328.08-18.2 328.71-20.75 328.71-22.85L328.71-22.85Q328.71-23.45 328.63-24.15 328.56-24.85 328.33-25.45 328.11-26.05 327.63-26.48 327.16-26.9 326.36-26.9L326.36-26.9Q324.76-26.9 323.41-26.1 322.06-25.3 320.98-23.98 319.91-22.65 319.11-20.98 318.31-19.3 317.73-17.57 317.16-15.85 316.91-14.2 316.66-12.55 316.66-11.35L316.66-11.35ZM359.51-19.05Q359.16-13.95 357.51-10.18 355.86-6.4 353.53-3.85 351.21-1.3 348.53-0.05 345.86 1.2 343.46 1.2L343.46 1.2Q341.61 1.2 339.93 0.4 338.26-0.4 337.03-2.02 335.81-3.65 335.11-6.1 334.41-8.55 334.41-11.85L334.41-11.85Q334.41-18.3 336.26-23.1 338.11-27.9 340.93-31.1 343.76-34.3 346.98-35.85 350.21-37.4 353.01-37.4L353.01-37.4Q355.01-37.4 356.48-36.7 357.96-36 358.91-34.83 359.86-33.65 360.28-32.08 360.71-30.5 360.71-28.75L360.71-28.75 353.86-27.45Q353.41-29.45 352.66-30.3 351.91-31.15 350.96-31.15L350.96-31.15Q349.71-31.15 348.21-29.38 346.71-27.6 345.41-24.8 344.11-22 343.21-18.65 342.31-15.3 342.21-12.05L342.21-12.05Q342.21-8.95 343.13-7.63 344.06-6.3 345.51-6.3L345.51-6.3Q346.51-6.3 347.58-6.8 348.66-7.3 349.51-8.22 350.36-9.15 350.93-10.38 351.51-11.6 351.56-13.05L351.56-13.05 346.21-12.25 347.16-17.2Q349.51-17.5 351.76-17.8L351.76-17.8Q353.66-18.05 355.78-18.4 357.91-18.75 359.51-19.05L359.51-19.05ZM369.65-1.8L361.1-0.75 363.4-10.8Q363.4-12.95 363.33-15.48 363.25-18 363.1-20.55 362.95-23.1 362.8-25.48 362.65-27.85 362.55-29.68 362.45-31.5 362.35-32.6 362.25-33.7 362.25-33.7L362.25-33.7 370.4-36.8 370.4-30.7Q370.4-29.45 370.4-28.15 370.4-26.85 370.38-25.6 370.35-24.35 370.35-23.25 370.35-22.15 370.35-21.4L370.35-21.4Q371-23.1 371.93-25.6 372.85-28.1 373.65-30.45L373.65-30.45Q374.6-33.2 375.6-36.25L375.6-36.25 383.35-34.5Q381.2-30.2 379.15-25.95L379.15-25.95Q378.3-24.1 377.35-22.13 376.4-20.15 375.45-18.18 374.5-16.2 373.6-14.35 372.7-12.5 371.95-10.9L371.95-10.9Q371.7-9.6 371.33-8.05 370.95-6.5 370.6-5.1L370.6-5.1Q370.15-3.45 369.65-1.8L369.65-1.8ZM388.55-23.9L380.35-23.05Q381.05-25.75 381.7-28.45L381.7-28.45Q382.3-30.8 382.98-33.6 383.65-36.4 384.2-38.9L384.2-38.9Q384.5-38.85 385.05-38.83 385.6-38.8 386.15-38.78 386.7-38.75 387.25-38.75 387.8-38.75 388.05-38.75L388.05-38.75Q388.75-38.75 389.68-38.85 390.6-38.95 391.5-39.1 392.4-39.25 393.45-39.45L393.45-39.45 388.55-23.9ZM408.7-12.35Q408.7-9.55 407.62-7.28 406.55-5 404.72-3.35 402.9-1.7 400.42-0.8 397.95 0.1 395.1 0.1L395.1 0.1Q393.1 0.1 391.1-0.98 389.1-2.05 387.25-4.4L387.25-4.4 390.95-11.65Q391.3-11 392-10.33 392.7-9.65 393.57-9.15 394.45-8.65 395.32-8.33 396.2-8 396.9-8L396.9-8Q397.5-8 398.15-8.2 398.8-8.4 399.35-8.8 399.9-9.2 400.22-9.73 400.55-10.25 400.55-10.95L400.55-10.95Q400.55-12.15 399.77-13.18 399-14.2 397.85-15.13 396.7-16.05 395.35-17 394-17.95 392.87-19 391.75-20.05 390.95-21.35 390.15-22.65 390.15-24.25L390.15-24.25Q390.15-26.85 391.7-29.1 393.25-31.35 395.57-32.98 397.9-34.6 400.65-35.55 403.4-36.5 405.85-36.5L405.85-36.5Q407.2-36.5 408.4-36.18 409.6-35.85 410.47-35.13 411.35-34.4 411.87-33.3 412.4-32.2 412.4-30.55L412.4-30.55Q412.4-29.85 412.27-29.15 412.15-28.45 412.05-27.65L412.05-27.65 404.8-25.55Q404.9-25.95 404.97-26.35 405.05-26.75 405.05-27.15L405.05-27.15Q405.05-28.65 404.52-29.33 404-30 403.15-30L403.15-30Q402.75-30 402.17-29.7 401.6-29.4 401.02-28.93 400.45-28.45 400.05-27.8 399.65-27.15 399.65-26.4L399.65-26.4Q399.65-25.2 400.32-24.4 401-23.6 402-22.9 403-22.2 404.17-21.48 405.35-20.75 406.35-19.6 407.35-18.45 408.02-16.73 408.7-15 408.7-12.35L408.7-12.35Z" opacity="1" transform="matrix(1,0,0,1,0,0)" fill="#000000" class="slogan-text-1" data-fill-palette-color="secondary" id="text-1"></path></svg></g></svg></g></svg></g></svg></g><g transform="matrix(1,0,0,1,380.4526272418352,0)"><svg viewBox="0 0 207.49819777204783 237.14079745376895" height="237.14079745376895" width="207.49819777204783"><g><svg xmlns="http://www.w3.org/2000/svg" xmlns:xlink="http://www.w3.org/1999/xlink" version="1.1" x="0" y="0" viewBox="6 2 56 64" style="enable-background:new 0 0 68 68;" xml:space="preserve" height="237.14079745376895" width="207.49819777204783" class="icon-icon-0" data-fill-palette-color="accent" id="icon-0"><g fill="#000000" data-fill-palette-color="accent"><g fill="#000000" data-fill-palette-color="accent"><g fill="#000000" data-fill-palette-color="accent"><g fill="#000000" data-fill-palette-color="accent"><path d="M38 40c-1.6 0-3.1-0.6-4.2-1.8-2.3-2.3-2.3-6.1 0-8.5 1.1-1.1 2.6-1.8 4.2-1.8s3.1 0.6 4.2 1.8c2.3 2.3 2.3 6.1 0 8.5h0c0 0 0 0 0 0C41.1 39.4 39.6 40 38 40zM38 30c-1.1 0-2.1 0.4-2.8 1.2-1.6 1.6-1.6 4.1 0 5.7 0.8 0.8 1.8 1.2 2.8 1.2s2.1-0.4 2.8-1.2c0 0 0 0 0 0 1.6-1.6 1.6-4.1 0-5.7C40.1 30.4 39.1 30 38 30z" fill="#000000" data-fill-palette-color="accent"></path></g></g></g><g fill="#000000" data-fill-palette-color="accent"><g fill="#000000" data-fill-palette-color="accent"><g fill="#000000" data-fill-palette-color="accent"><path d="M34.5 31.4c-0.3 0-0.5-0.1-0.7-0.3L15.7 13.1c-0.4-0.4-0.4-1 0-1.4 0.4-0.4 1-0.4 1.4 0l18.1 18.1c0.4 0.4 0.4 1 0 1.4C35 31.3 34.7 31.4 34.5 31.4z" fill="#000000" data-fill-palette-color="accent"></path></g></g></g><g fill="#000000" data-fill-palette-color="accent"><g fill="#000000" data-fill-palette-color="accent"><g fill="#000000" data-fill-palette-color="accent"><path d="M26.6 46.4c-0.3 0-0.5-0.1-0.7-0.3-0.4-0.4-0.4-1 0-1.4l7.8-7.8c0.4-0.4 1-0.4 1.4 0 0.4 0.4 0.4 1 0 1.4l-7.8 7.8C27.1 46.3 26.9 46.4 26.6 46.4z" fill="#000000" data-fill-palette-color="accent"></path></g></g></g><g fill="#000000" data-fill-palette-color="accent"><g fill="#000000" data-fill-palette-color="accent"><g fill="#000000" data-fill-palette-color="accent"><path d="M52 49c-0.3 0-0.5-0.1-0.7-0.3L40.8 38.2c-0.4-0.4-0.4-1 0-1.4 0.4-0.4 1-0.4 1.4 0l10.5 10.5c0.4 0.4 0.4 1 0 1.4C52.5 48.9 52.3 49 52 49z" fill="#000000" data-fill-palette-color="accent"></path></g></g></g><g fill="#000000" data-fill-palette-color="accent"><g fill="#000000" data-fill-palette-color="accent"><g fill="#000000" data-fill-palette-color="accent"><path d="M41.5 31.5c-0.3 0-0.5-0.1-0.7-0.3-0.4-0.4-0.4-1 0-1.4l12.8-12.5c0.4-0.4 1-0.4 1.4 0 0.4 0.4 0.4 1 0 1.4L42.2 31.2C42 31.4 41.8 31.5 41.5 31.5z" fill="#000000" data-fill-palette-color="accent"></path></g></g></g><g fill="#000000" data-fill-palette-color="accent"><g fill="#000000" data-fill-palette-color="accent"><g fill="#000000" data-fill-palette-color="accent"><path d="M12.5 15C8.9 15 6 12 6 8.5S8.9 2 12.5 2 19 4.9 19 8.5 16.1 15 12.5 15zM12.5 4C10 4 8 6 8 8.5s2 4.5 4.5 4.5 4.5-2 4.5-4.5S15 4 12.5 4z" fill="#000000" data-fill-palette-color="accent"></path></g></g></g><g fill="#000000" data-fill-palette-color="accent"><g fill="#000000" data-fill-palette-color="accent"><g fill="#000000" data-fill-palette-color="accent"><path d="M18.5 66C11.6 66 6 60.4 6 53.5S11.6 41 18.5 41 31 46.6 31 53.5 25.4 66 18.5 66zM18.5 43C12.7 43 8 47.7 8 53.5 8 59.3 12.7 64 18.5 64S29 59.3 29 53.5C29 47.7 24.3 43 18.5 43z" fill="#000000" data-fill-palette-color="accent"></path></g></g></g><g fill="#000000" data-fill-palette-color="accent"><g fill="#000000" data-fill-palette-color="accent"><g fill="#000000" data-fill-palette-color="accent"><path d="M57 20c-2.8 0-5-2.2-5-5 0-2.8 2.2-5 5-5s5 2.2 5 5C62 17.7 59.8 20 57 20zM57 12c-1.7 0-3 1.3-3 3 0 1.7 1.3 3 3 3s3-1.3 3-3C60 13.3 58.7 12 57 12z" fill="#000000" data-fill-palette-color="accent"></path></g></g></g><g fill="#000000" data-fill-palette-color="accent"><g fill="#000000" data-fill-palette-color="accent"><g fill="#000000" data-fill-palette-color="accent"><path d="M55 56c-2.8 0-5-2.2-5-5 0-2.8 2.2-5 5-5s5 2.2 5 5C60 53.8 57.8 56 55 56zM55 48c-1.7 0-3 1.3-3 3 0 1.7 1.3 3 3 3s3-1.3 3-3C58 49.3 56.7 48 55 48z" fill="#000000" data-fill-palette-color="accent"></path></g></g></g></g></svg></g></svg></g></svg></g></svg></g></svg></g></svg></g><defs></defs></svg><rect width="395.52" height="247.2" fill="none" stroke="none" visibility="hidden"></rect></g></svg></g></svg>