<svg width="223" height="52" viewBox="0 0 223 52" fill="none" xmlns="http://www.w3.org/2000/svg">
<path d="M0.450806 12.3066H5.22133V27.0977C2.82981 22.5609 1.18955 17.5767 0.450806 12.3066Z" fill="#D86D6D"/>
<path d="M27.8343 24.0648H20.3467C20.5721 20.3236 21.8367 18.4467 24.1406 18.4467C26.5947 18.4467 27.8343 20.3236 27.8343 24.0648Z" fill="#D86D6D"/>
<path d="M60.4767 15.2399C62.167 15.2399 63.5819 15.6501 64.6963 16.458V0.57312H0V5.9178C0 6.70086 0.0250421 7.48392 0.0626053 8.26698H16.4902V12.3066H10.0168V34.4062C18.4685 44.9464 31.4904 51.6956 46.115 51.6956H64.6963V36.5689C63.4942 37.2277 62.0293 37.5509 60.3264 37.5509C55.7938 37.5509 53.227 35.4876 52.6135 31.361L56.3698 30.6649C56.8456 33.1135 58.2104 34.3316 60.4642 34.3316C61.6036 34.3316 62.455 34.0457 63.0185 33.4864C63.5694 32.9271 63.8574 32.2559 63.8574 31.4853C63.8574 30.9508 63.657 30.4288 63.2814 29.8943C62.8932 29.3723 61.8289 28.8254 60.076 28.266C58.3982 27.7316 57.121 27.2344 56.2696 26.7621C55.4182 26.3022 54.717 25.631 54.1661 24.7485C53.6151 23.8784 53.3397 22.8841 53.3397 21.7778C53.3397 19.9631 54.0033 18.4219 55.3305 17.1541C56.6578 15.8738 58.3731 15.2399 60.4767 15.2399ZM21.411 32.7904C22.1998 33.7474 23.1765 34.2322 24.366 34.2322C26.3318 34.2322 27.5839 32.9022 28.1098 30.2672L32.1541 30.7892C31.0898 35.3011 28.4478 37.5509 24.2282 37.5509C21.6364 37.5509 19.5704 36.6311 18.0303 34.7915C16.4902 32.952 15.7264 30.2548 15.7264 26.6999C15.7264 23.1451 16.5027 20.2242 18.0554 18.2354C19.608 16.2343 21.6865 15.2399 24.2908 15.2399C26.1064 15.2399 27.6465 15.7371 28.8861 16.7315C30.1382 17.7383 31.0146 19.0434 31.5155 20.6716C32.0289 22.2874 32.3043 24.4129 32.3419 27.0355H20.234C20.234 29.9067 20.6347 31.8333 21.411 32.7904ZM47.5424 37.0288L43.2602 26.3643L40.418 30.2672V37.0288H36.0105V8.26698H40.418V25.2705L47.3296 15.7495H51.6994L46.1651 23.0705L52.313 37.0288H47.5424ZM63.9325 21.6411C63.2939 19.5157 62.0919 18.4467 60.3139 18.4467C59.4875 18.4467 58.8239 18.6953 58.3231 19.2049C57.8222 19.7021 57.5718 20.336 57.5718 21.0818C57.5718 21.927 57.8347 22.536 58.3356 22.9338C58.8489 23.3315 60.0134 23.8163 61.8415 24.4129C62.9433 24.7733 63.8949 25.1587 64.6963 25.5813V21.4422L63.9325 21.6411Z" fill="#D86D6D"/>
<path d="M72.0586 8.26697H76.7415V26.1157C76.7415 28.1044 76.8542 29.5836 77.0545 30.5282C77.2674 31.4728 77.7557 32.231 78.5069 32.7779C79.2582 33.3373 80.2849 33.6107 81.5746 33.6107C82.7891 33.6107 83.7407 33.387 84.4169 32.9271C85.093 32.4672 85.5813 31.8209 85.8568 30.9881C86.1323 30.1553 86.2825 28.5022 86.2825 26.0287V8.26697H90.5897V25.7926C90.5897 28.6016 90.3894 30.7644 89.9887 32.2808C89.5881 33.7971 88.649 35.0525 87.184 36.0469C85.7191 37.0412 83.7658 37.5384 81.2991 37.5384C79.3959 37.5384 77.7306 37.2277 76.3283 36.6062C74.9259 35.9847 73.8616 34.9655 73.1354 33.5734C72.4217 32.1813 72.0586 29.683 72.0586 26.1033V8.26697Z" fill="#D86D6D"/>
<path d="M95.7736 15.7495H99.8429V19.0309C100.832 16.5077 102.61 15.2399 105.152 15.2399C106.592 15.2399 107.756 15.588 108.645 16.2716C109.534 16.9552 110.085 17.788 110.323 18.745C110.561 19.7021 110.674 21.2309 110.674 23.3067V37.0288H106.266V23.5553C106.266 21.7033 106.103 20.4479 105.778 19.7767C105.452 19.1055 104.751 18.7823 103.687 18.7823C102.623 18.7823 101.721 19.2049 101.095 20.0501C100.481 20.8953 100.168 22.5858 100.168 25.1089V37.0164H95.761V15.7495H95.7736Z" fill="#D86D6D"/>
<path d="M115.757 8.26697H120.164V37.0288H115.757V8.26697Z" fill="#D86D6D"/>
<path d="M129.906 12.8783H125.26V8.21729H129.906V12.8783ZM125.373 15.7496H129.781V37.0289H125.373V15.7496Z" fill="#D86D6D"/>
<path d="M134.989 15.7495H139.059V18.9936C140.11 16.4953 141.863 15.2399 144.33 15.2399C147.047 15.2399 148.675 16.5575 149.226 19.2049C150.228 16.5699 152.031 15.2399 154.647 15.2399C155.95 15.2399 157.026 15.5258 157.903 16.0851C158.779 16.6445 159.38 17.3902 159.718 18.3224C160.057 19.2547 160.232 20.9948 160.232 23.5677V37.0288H155.824V23.9406C155.824 21.9394 155.649 20.5722 155.299 19.8513C154.948 19.1304 154.247 18.7823 153.208 18.7823C150.966 18.7823 149.852 20.7089 149.852 24.5745V37.0288H145.444V24.0897C145.444 22.2502 145.369 21.0569 145.219 20.5225C145.069 19.988 144.793 19.553 144.393 19.2547C143.992 18.9563 143.466 18.7948 142.84 18.7948C141.613 18.7948 140.737 19.2547 140.211 20.1744C139.685 21.0942 139.422 22.5982 139.422 24.6863V37.0413H135.014V15.7495H134.989Z" fill="#D86D6D"/>
<path d="M171.1 12.8783H166.455V8.21729H171.1V12.8783ZM166.567 15.7496H170.975V37.0289H166.567V15.7496Z" fill="#D86D6D"/>
<path d="M176.972 10.206L180.954 9.82068V15.7371H185.048V19.2795H180.954V28.6638C180.954 30.3169 180.992 31.4107 181.079 31.9576C181.167 32.4921 181.417 32.9395 181.843 33.2876C182.269 33.6356 182.97 33.7972 183.959 33.7972C184.485 33.7972 185.073 33.7475 185.737 33.648V37.1656C184.548 37.4142 183.446 37.5509 182.431 37.5509C180.779 37.5509 179.514 37.2277 178.638 36.5938C177.761 35.9599 177.198 35.0898 176.96 33.996C176.722 32.9022 176.597 31.2243 176.597 28.987V19.292H173.817V15.7495H176.722L176.96 10.206H176.972Z" fill="#D86D6D"/>
<path d="M203.792 27.0355H191.685C191.685 29.9067 192.073 31.8209 192.862 32.778C193.65 33.735 194.627 34.2198 195.817 34.2198C197.795 34.2198 199.034 32.9022 199.56 30.2548L203.605 30.7768C202.54 35.2887 199.898 37.5385 195.679 37.5385C193.087 37.5385 191.021 36.6187 189.481 34.7791C187.941 32.9395 187.164 30.2423 187.164 26.6875C187.164 23.1327 187.941 20.2117 189.493 18.223C191.046 16.2343 193.125 15.2275 195.729 15.2275C197.557 15.2275 199.085 15.7247 200.324 16.719C201.564 17.7134 202.44 19.0309 202.954 20.6468C203.467 22.2626 203.742 24.388 203.78 27.0231L203.792 27.0355ZM199.272 24.0649C199.272 20.3112 198.045 18.4343 195.579 18.4343C193.275 18.4343 192.01 20.3112 191.785 24.0649H199.272Z" fill="#D86D6D"/>
<path d="M218.593 8.26697H223V37.0288H218.931V33.8096C217.904 36.2085 216.138 37.4141 213.622 37.4141C211.105 37.4141 209.402 36.4073 208.2 34.4062C206.998 32.405 206.397 29.7576 206.397 26.501C206.397 23.0083 207.061 20.2739 208.388 18.3224C209.715 16.371 211.493 15.3891 213.697 15.3891C216.026 15.3891 217.654 16.3337 218.58 18.2106V8.26697H218.593ZM218.593 24.4999C218.593 22.3123 218.179 20.7835 217.353 19.901C216.527 19.0185 215.663 18.5834 214.786 18.5834C212.345 18.5834 211.118 21.0818 211.118 26.0784C211.118 31.4107 212.357 34.0706 214.824 34.0706C215.775 34.0706 216.652 33.6231 217.428 32.7406C218.204 31.8581 218.593 30.3169 218.593 28.1293V24.4875V24.4999Z" fill="#D86D6D"/>
</svg>
